<?xml version="1.0" encoding="UTF-8"?>
<svg version="1.1" xmlns="http://www.w3.org/2000/svg" width="367" height="115">
<path d="M0 0 C121.11 0 242.22 0 367 0 C367 37.95 367 75.9 367 115 C245.89 115 124.78 115 0 115 C0 77.05 0 39.1 0 0 Z " fill="#FCFDFD" transform="translate(0,0)"/>
<path d="M0 0 C5.08617453 -0.12464234 10.17143856 -0.21482392 15.25878906 -0.2746582 C16.9851838 -0.29962938 18.71147471 -0.33361907 20.4375 -0.37719727 C39.65109278 -0.8497538 39.65109278 -0.8497538 47 5 C50.41744467 8.75086558 52.26385511 12.26479987 52.625 17.375 C52.28238956 22.86628392 50.09180077 27.50798579 47 32 C44 34.5 44 34.5 41 36 C40.28457031 36.35835937 39.56914063 36.71671875 38.83203125 37.0859375 C35.09852716 38.29095813 31.56011365 38.21427988 27.6875 38.125 C23.8821875 38.063125 23.8821875 38.063125 20 38 C20.33 45.92 20.66 53.84 21 62 C23.64 62.33 26.28 62.66 29 63 C29 63.66 29 64.32 29 65 C19.43 65 9.86 65 0 65 C0 64.34 0 63.68 0 63 C0.804375 62.87625 1.60875 62.7525 2.4375 62.625 C3.283125 62.41875 4.12875 62.2125 5 62 C6.29663922 59.40672157 6.12003569 57.53591932 6.11352539 54.63232422 C6.11344986 53.51131317 6.11337433 52.39030212 6.11329651 51.23532104 C6.10813522 50.02071198 6.10297394 48.80610291 6.09765625 47.5546875 C6.09553383 45.69446457 6.09553383 45.69446457 6.09336853 43.79666138 C6.08871096 40.49881867 6.07972439 37.20102454 6.06866455 33.90319824 C6.05843731 30.53833613 6.05386809 27.17346692 6.04882812 23.80859375 C6.03778269 17.20571007 6.02103247 10.60285901 6 4 C4.02 3.01 2.04 2.02 0 1 C0 0.67 0 0.34 0 0 Z " fill="#333333" transform="translate(10,15)"/>
<path d="M0 0 C4.28197128 2.20058481 5.90971783 4.96406305 7.63671875 9.3125 C8.01499133 12.14323754 7.98805581 14.92176103 7.9296875 17.7734375 C7.92544266 18.56400543 7.92119781 19.35457336 7.91682434 20.1690979 C7.90013176 22.6755894 7.86249858 25.18125461 7.82421875 27.6875 C7.80915967 29.39451958 7.79547341 31.10155185 7.78320312 32.80859375 C7.75025931 36.97687725 7.69854368 41.14454889 7.63671875 45.3125 C10.60671875 44.8175 10.60671875 44.8175 13.63671875 44.3125 C12.63671875 47.3125 12.63671875 47.3125 10.51171875 48.5 C6.94916396 49.50680896 4.32424902 49.77344128 0.63671875 49.3125 C-2.17578125 46.8125 -2.17578125 46.8125 -4.36328125 44.3125 C-7.46831859 44.3125 -9.00211597 46.41204989 -11.36328125 48.3125 C-14.98258823 49.51893566 -17.5555913 49.63518559 -21.36328125 49.3125 C-25.06718146 47.28583762 -27.01691136 45.83205484 -29.36328125 42.3125 C-29.69921875 40.0078125 -29.69921875 40.0078125 -29.73828125 37.4375 C-29.76664062 36.59445313 -29.795 35.75140625 -29.82421875 34.8828125 C-29.19634202 31.3816016 -27.86352757 29.81692733 -25.36328125 27.3125 C-22.62890625 25.87109375 -22.62890625 25.87109375 -19.61328125 24.75 C-14.69305692 22.84461901 -10.04405463 20.74290156 -5.36328125 18.3125 C-5.28226065 16.20896505 -5.22408218 14.10454048 -5.17578125 12 C-5.14097656 10.82824219 -5.10617188 9.65648437 -5.0703125 8.44921875 C-5.12553325 5.39145848 -5.12553325 5.39145848 -6.51953125 3.40625 C-9.10843276 1.87046097 -11.06553514 2.01963837 -14.05078125 2.125 C-15.04464844 2.15207031 -16.03851563 2.17914063 -17.0625 2.20703125 C-18.20138672 2.25923828 -18.20138672 2.25923828 -19.36328125 2.3125 C-19.36328125 2.9725 -19.36328125 3.6325 -19.36328125 4.3125 C-18.72390625 4.51875 -18.08453125 4.725 -17.42578125 4.9375 C-15.36328125 6.3125 -15.36328125 6.3125 -14.36328125 9.1875 C-14.36328125 12.3125 -14.36328125 12.3125 -15.92578125 14.6875 C-19.01989265 16.75024093 -20.71068386 16.85650387 -24.36328125 16.3125 C-26.23828125 15.25 -26.23828125 15.25 -27.36328125 13.3125 C-27.92578125 9.9375 -27.92578125 9.9375 -27.36328125 6.3125 C-20.13298467 -1.25408945 -9.99734791 -2.90831939 0 0 Z " fill="#373737" transform="translate(139.36328125,31.6875)"/>
<path d="M0 0 C0.33 1.98 0.66 3.96 1 6 C1.94875 5.195625 2.8975 4.39125 3.875 3.5625 C8.47460193 -0.33716251 12.01988103 -0.38810981 18.00390625 -0.359375 C22.47687674 0.17714819 24.06372334 1.6669292 27 5 C28.57021155 8.1404231 28.19917574 11.51411768 28.24609375 14.96484375 C28.27902738 16.58529196 28.31223911 18.20573453 28.34570312 19.82617188 C28.39315659 22.38497094 28.43759571 24.94374637 28.47680664 27.50268555 C28.51649016 29.96947937 28.56803827 32.43580642 28.62109375 34.90234375 C28.6295079 35.66804184 28.63792206 36.43373993 28.64659119 37.22264099 C28.73453898 40.99625315 28.85656645 42.78484968 31 46 C33.05925139 46.72382467 33.05925139 46.72382467 35 47 C35 47.66 35 48.32 35 49 C27.08 49 19.16 49 11 49 C11 48.34 11 47.68 11 47 C11.813479 46.63003906 12.62695801 46.26007813 13.46508789 45.87890625 C16.40193007 44.1567662 16.40193007 44.1567662 16.59936523 40.40234375 C16.61209025 38.91405485 16.59670383 37.4253553 16.55859375 35.9375 C16.55626236 35.14980225 16.55393097 34.36210449 16.55152893 33.55053711 C16.54179098 31.88612023 16.52000227 30.22173654 16.48706055 28.55761719 C16.43767957 26.00926691 16.42558256 23.46284784 16.41992188 20.9140625 C16.40583438 19.29685445 16.38962943 17.67966318 16.37109375 16.0625 C16.36573105 15.29993896 16.36036835 14.53737793 16.35484314 13.75170898 C16.27014635 9.98588959 16.13873051 8.20809577 14 5 C9.89048948 4.27642353 9.89048948 4.27642353 6 5 C2.51523038 8.40018149 1.16083866 9.92262309 0.43237305 14.80224609 C0.43315434 16.20955823 0.46079712 17.61704671 0.51171875 19.0234375 C0.51879349 19.76961334 0.52586823 20.51578918 0.53315735 21.28457642 C0.56096823 23.64910592 0.623672 26.0111963 0.6875 28.375 C0.7126005 29.98564268 0.73541061 31.59632279 0.75585938 33.20703125 C0.8107499 37.13894912 0.89692151 41.06906223 1 45 C2.32 45.66 3.64 46.32 5 47 C5 47.66 5 48.32 5 49 C-2.59 49 -10.18 49 -18 49 C-18 48.34 -18 47.68 -18 47 C-15.525 46.505 -15.525 46.505 -13 46 C-12.87648902 40.35839864 -12.7857037 34.71758224 -12.7253418 29.07495117 C-12.7001825 27.1552154 -12.66605115 25.23557556 -12.62280273 23.31616211 C-12.56221147 20.55819054 -12.53380548 17.80148391 -12.51171875 15.04296875 C-12.48591232 14.18350143 -12.4601059 13.32403412 -12.43351746 12.43852234 C-12.43245212 10.18009093 -12.45934231 8.19330924 -13 6 C-15.39757616 3.99689135 -15.39757616 3.99689135 -18 3 C-18 2.34 -18 1.68 -18 1 C-15.37504621 0.83257698 -12.75004205 0.6660283 -10.125 0.5 C-9.00544922 0.42845703 -9.00544922 0.42845703 -7.86328125 0.35546875 C-2.2265625 0 -2.2265625 0 0 0 Z " fill="#323232" transform="translate(281,31)"/>
<path d="M0 0 C4.81724331 2.85102155 7.52662725 6.43694537 9.0625 11.8125 C9.0625 14.1225 9.0625 16.4325 9.0625 18.8125 C0.1525 18.8125 -8.7575 18.8125 -17.9375 18.8125 C-17.61519785 31.19974653 -17.61519785 31.19974653 -11.75 40.1875 C-8.01993558 42.34264833 -5.14971203 42.52165537 -0.9375 41.8125 C2.86839336 40.12099184 4.6598906 38.13038918 7.0625 34.8125 C7.7225 34.8125 8.3825 34.8125 9.0625 34.8125 C7.84334942 41.0606467 4.03702989 44.23674881 -0.9375 47.8125 C-6.4345727 49.64485757 -12.90397245 49.9897627 -18.36328125 47.87109375 C-24.54234471 44.15900101 -28.03922278 39.8023428 -29.9375 32.8125 C-30.26104479 29.84926868 -30.30752673 26.91649149 -30.3125 23.9375 C-30.33699219 23.17308594 -30.36148437 22.40867187 -30.38671875 21.62109375 C-30.42066712 14.95589795 -28.58501594 9.81998522 -24.15625 4.7890625 C-23.5890625 4.34304687 -23.021875 3.89703125 -22.4375 3.4375 C-21.8703125 2.97601563 -21.303125 2.51453125 -20.71875 2.0390625 C-14.55051526 -2.2083623 -7.04795747 -2.68493618 0 0 Z " fill="#323232" transform="translate(350.9375,32.1875)"/>
<path d="M0 0 C4.74519231 3.40680473 4.74519231 3.40680473 6.4375 5.75 C6.86269574 9.21230815 7.07652633 11.5847167 5.375 14.6875 C2.31773824 16.3640629 -0.1531288 16.11528977 -3.5625 15.75 C-5.5625 14.6875 -5.5625 14.6875 -6.5625 12.75 C-6.43309529 9.1266682 -6.31262072 6.68014969 -4 3.8125 C-3.525625 3.461875 -3.05125 3.11125 -2.5625 2.75 C-5.74128694 1.16060653 -8.0581772 1.33423289 -11.5625 1.75 C-16.19109659 6.17288119 -18.56089576 10.4976806 -18.8984375 16.859375 C-18.92830826 18.40601638 -18.94069349 19.9530735 -18.9375 21.5 C-18.93508301 22.70172852 -18.93508301 22.70172852 -18.93261719 23.92773438 C-18.81383625 29.6525098 -18.35308295 35.16386261 -14.5625 39.75 C-10.85486118 42.1906679 -8.00567943 41.88216045 -3.75390625 41.30078125 C-0.63598261 40.51713199 1.22286195 39.03384549 3.4375 36.75 C3.9325 35.76 3.9325 35.76 4.4375 34.75 C5.0975 34.75 5.7575 34.75 6.4375 34.75 C6.01567695 39.53066121 3.83010355 42.5242458 0.4375 45.75 C-4.94646137 49.68948393 -11.1515981 49.65021851 -17.5625 48.75 C-23.5200027 46.4074868 -27.69325412 42.34626654 -30.640625 36.67578125 C-31.93319749 32.5735067 -31.93084329 28.71443683 -31.9375 24.4375 C-31.96199219 23.62087891 -31.98648438 22.80425781 -32.01171875 21.96289062 C-32.04450992 15.10407038 -30.34827038 9.9145374 -25.78125 4.7265625 C-25.2140625 4.28054687 -24.646875 3.83453125 -24.0625 3.375 C-23.4953125 2.91351563 -22.928125 2.45203125 -22.34375 1.9765625 C-15.70832616 -2.59256707 -7.52898034 -2.64174749 0 0 Z " fill="#333333" transform="translate(189.5625,32.25)"/>
<path d="M0 0 C3.0625 2.0625 3.0625 2.0625 5 5 C5 8.56883409 4.68455497 10.88309452 2.8125 13.9375 C0.08912093 15.5339636 -1.90953021 15.38630872 -5 15 C-6.875 13.875 -6.875 13.875 -8 12 C-8.3125 8.9375 -8.3125 8.9375 -8 6 C-7.34 5.34 -6.68 4.68 -6 4 C-8.69421517 4 -10.40235664 4.41196991 -12.35083008 6.32910156 C-17.12676725 13.01667541 -16.67391664 19.78936086 -16.5 27.75 C-16.50257812 29.06355469 -16.50515625 30.37710938 -16.5078125 31.73046875 C-16.79524583 39.56154665 -16.79524583 39.56154665 -13 46 C-10.40144267 46.8042208 -10.40144267 46.8042208 -8 47 C-8 47.66 -8 48.32 -8 49 C-16.91 49 -25.82 49 -35 49 C-35 48.34 -35 47.68 -35 47 C-34.195625 46.71125 -33.39125 46.4225 -32.5625 46.125 C-29.8673532 45.26737432 -29.8673532 45.26737432 -29 43 C-28.88894142 40.33627386 -28.83589323 37.69948562 -28.83203125 35.03515625 C-28.82703865 33.8514872 -28.82703865 33.8514872 -28.82194519 32.64390564 C-28.81687902 30.97362858 -28.81453677 29.30334138 -28.81469727 27.63305664 C-28.81251168 25.07616515 -28.79435554 22.51970568 -28.77539062 19.96289062 C-28.77245648 18.34114731 -28.77047182 16.71940195 -28.76953125 15.09765625 C-28.76234573 14.33195816 -28.75516022 13.56626007 -28.74775696 12.77735901 C-28.76413243 8.97672227 -28.83942224 7.24086665 -31 4 C-33.05925139 3.27617533 -33.05925139 3.27617533 -35 3 C-35 2.34 -35 1.68 -35 1 C-29.06 1 -23.12 1 -17 1 C-16.67 3.31 -16.34 5.62 -16 8 C-15.59007813 7.50628906 -15.18015625 7.01257812 -14.7578125 6.50390625 C-14.21898438 5.86324219 -13.68015625 5.22257812 -13.125 4.5625 C-12.59132813 3.92441406 -12.05765625 3.28632812 -11.5078125 2.62890625 C-8.35891094 -0.77288636 -4.36252656 -0.72431262 0 0 Z " fill="#313131" transform="translate(101,31)"/>
<path d="M0 0 C0 4.62 0 9.24 0 14 C3.96 14 7.92 14 12 14 C12 14.66 12 15.32 12 16 C8.04 16 4.08 16 0 16 C0.09338911 21.66029124 0.19944948 27.32014731 0.31738281 32.97998047 C0.35572168 34.90634614 0.39056582 36.8327846 0.421875 38.75927734 C0.46741945 41.52467918 0.52543037 44.28957769 0.5859375 47.0546875 C0.59748871 47.9193161 0.60903992 48.7839447 0.62094116 49.67477417 C0.52662158 54.31782848 0.52662158 54.31782848 3 58 C6.00293071 58.06948565 6.00293071 58.06948565 9 57 C10.91744593 54.55690423 10.91744593 54.55690423 12 52 C12.8125 53.625 12.8125 53.625 13 56 C9.01538462 61.49230769 9.01538462 61.49230769 6 63 C1.90842645 63.51512617 -2.23589546 63.94367269 -5.95703125 61.953125 C-8.09315687 60.18601378 -9.75449171 58.49101659 -11 56 C-11.08705146 53.01029711 -11.11550145 50.04415045 -11.09765625 47.0546875 C-11.0962413 46.1696756 -11.09482635 45.2846637 -11.09336853 44.37283325 C-11.0877614 41.54018809 -11.07520771 38.70762136 -11.0625 35.875 C-11.05748592 33.95703239 -11.05292285 32.03906354 -11.04882812 30.12109375 C-11.03778966 25.41403218 -11.02052025 20.7070294 -11 16 C-13.64 16 -16.28 16 -19 16 C-19 15.34 -19 14.68 -19 14 C-16.36 14 -13.72 14 -11 14 C-11 9.71 -11 5.42 -11 1 C-5 0 -5 0 0 0 Z " fill="#303030" transform="translate(219,18)"/>
<path d="M0 0 C5.94 0 11.88 0 18 0 C18.01981934 1.25659424 18.03963867 2.51318848 18.06005859 3.80786133 C18.13606997 8.46529347 18.22479423 13.12241135 18.31738281 17.77954102 C18.35569104 19.79607952 18.39054065 21.81268678 18.421875 23.8293457 C18.46748549 26.72632442 18.52548639 29.62282896 18.5859375 32.51953125 C18.59748871 33.42274612 18.60903992 34.325961 18.62094116 35.25654602 C18.64081085 36.09719101 18.66068054 36.937836 18.68115234 37.80395508 C18.69447601 38.54341873 18.70779968 39.28288239 18.7215271 40.04475403 C18.90214412 42.32104165 18.90214412 42.32104165 21 45 C23.05925139 45.72382467 23.05925139 45.72382467 25 46 C25 46.66 25 47.32 25 48 C16.75 48 8.5 48 0 48 C0 47.34 0 46.68 0 46 C0.804375 45.71125 1.60875 45.4225 2.4375 45.125 C5.1326468 44.26737432 5.1326468 44.26737432 6 42 C6.11105858 39.33627386 6.16410677 36.69948562 6.16796875 34.03515625 C6.17296135 32.8514872 6.17296135 32.8514872 6.17805481 31.64390564 C6.18312098 29.97362858 6.18546323 28.30334138 6.18530273 26.63305664 C6.18748832 24.07616515 6.20564446 21.51970568 6.22460938 18.96289062 C6.22754352 17.34114731 6.22952818 15.71940195 6.23046875 14.09765625 C6.23765427 13.33195816 6.24483978 12.56626007 6.25224304 11.77735901 C6.23586757 7.97672227 6.16057776 6.24086665 4 3 C1.94074861 2.27617533 1.94074861 2.27617533 0 2 C0 1.34 0 0.68 0 0 Z " fill="#313131" transform="translate(234,32)"/>
<path d="M0 0 C3.40704599 0.94440924 5.0954939 2.88675585 7.2265625 5.6171875 C8.96947359 9.10300969 8.49600172 13.02616634 8.5390625 16.8671875 C8.56806641 17.71410156 8.59707031 18.56101562 8.62695312 19.43359375 C8.68343891 25.0213414 7.96378524 28.19044026 4.2265625 32.6171875 C0.9908804 35.3906293 -1.32173447 35.75461357 -5.44921875 35.6875 C-6.25915283 35.67734863 -7.06908691 35.66719727 -7.90356445 35.65673828 C-8.52062256 35.64368652 -9.13768066 35.63063477 -9.7734375 35.6171875 C-9.84749045 30.81172071 -9.90199247 26.0065846 -9.93823242 21.20068359 C-9.95333661 19.56520809 -9.97382139 17.92977321 -9.99975586 16.29443359 C-10.03606895 13.94618726 -10.05314682 11.59847545 -10.06640625 9.25 C-10.08189011 8.51661407 -10.09737396 7.78322815 -10.11332703 7.02761841 C-10.11401367 4.96533203 -10.11401367 4.96533203 -9.7734375 1.6171875 C-6.02672561 -0.88062043 -4.30837918 -0.57538614 0 0 Z " fill="#FAFAFA" transform="translate(39.7734375,16.3828125)"/>
<path d="M0 0 C3.12578143 1.6720747 5.39281175 3.7856235 7 7 C7.50872093 13.10465114 7.06705978 16.11952826 3 21 C-1.27168636 23.84779091 -4.99195579 23.84632065 -10 23 C-12.97610485 21.56749374 -14.55101459 19.96589201 -16 17 C-16.98785011 11.72117596 -16.91193435 7.51989059 -14.125 2.875 C-9.90072114 -0.85230487 -5.43557362 -0.76580823 0 0 Z " fill="#1E75A9" transform="translate(251,3)"/>
<path d="M0 0 C13.47972758 -2.22737237 13.47972758 -2.22737237 19.1484375 1.359375 C23.32878886 4.91507616 26.88547099 9.02629312 30.42724609 13.20507812 C32.92036453 16.05037566 35.76975716 18.4010335 38.6796875 20.80078125 C40 22 40 22 41 24 C27.23682398 25.92849293 27.23682398 25.92849293 22.04785156 22.83691406 C18.39912864 19.80925036 15.3796385 16.23627789 12.36767578 12.58984375 C10.04774281 9.89305626 7.32322919 7.71802927 4.5859375 5.46484375 C2.78622122 3.80254423 1.41531966 1.99431407 0 0 Z " fill="#2177AA" transform="translate(35,85)"/>
<path d="M0 0 C14.91082841 -1.21997687 14.91082841 -1.21997687 19.62890625 1.53515625 C21.5895267 3.59083709 23.2818843 5.73974107 25 8 C26.30353238 9.19987175 27.63744993 10.36759274 29 11.5 C33.20209093 15.11846719 37.24999468 18.91089845 41 23 C41 23.33 41 23.66 41 24 C34.91485724 25.00752692 28.40991902 26.03132399 22.8828125 22.73876953 C18.77896223 19.49873257 15.21453986 15.75119936 11.71435547 11.87841797 C8.91649189 8.812801 5.95045576 5.91763747 3 3 C1.99942652 2.00057381 0.99924713 1.0007523 0 0 Z " fill="#1F76A9" transform="translate(62,85)"/>
<path d="M0 0 C6.30510812 -1.22198596 12.6429259 -2.11499919 18.31347656 1.45751953 C22.95480883 5.22823057 27.05941333 9.51544043 31.08642578 13.92626953 C33.55250364 16.59874533 36.14089603 19.1334843 38.74780273 21.66772461 C40 23 40 23 40 24 C33.69489188 25.22198596 27.3570741 26.11499919 21.68652344 22.54248047 C17.04519117 18.77176943 12.94058667 14.48455957 8.91357422 10.07373047 C6.44749636 7.40125467 3.85910397 4.8665157 1.25219727 2.33227539 C0 1 0 1 0 0 Z " fill="#1F75A9" transform="translate(8,85)"/>
<path d="M0 0 C-1.92052685 2.02722279 -3.96149928 3.80465567 -6.125 5.5625 C-9.00332155 7.67912299 -9.00332155 7.67912299 -10 10 C-10.34092041 15.32967208 -10.34092041 15.32967208 -8 20 C-4.14880946 20.28527337 -0.69007882 20.18082522 3 19 C-2.22123894 25.86219975 -2.22123894 25.86219975 -7 27 C-11.34263302 27.47374178 -13.44934592 27.30130129 -17.3125 25.1875 C-20.11367321 22.9074753 -21.80363219 21.34717449 -22.3359375 17.6953125 C-22.34882812 16.84710938 -22.36171875 15.99890625 -22.375 15.125 C-22.40335937 14.28195313 -22.43171875 13.43890625 -22.4609375 12.5703125 C-21.83138221 9.05974145 -20.51281632 7.50864913 -18 5 C-15.08984375 3.453125 -15.08984375 3.453125 -11.9375 2.25 C-10.89464844 1.84265625 -9.85179688 1.4353125 -8.77734375 1.015625 C-3.138833 -1.04627767 -3.138833 -1.04627767 0 0 Z " fill="#373737" transform="translate(132,54)"/>
<path d="M0 0 C0.10806144 2.91765891 0.18732877 5.83131125 0.25 8.75 C0.30027344 9.9875 0.30027344 9.9875 0.3515625 11.25 C0.45012077 17.36061276 0.45012077 17.36061276 -1.79296875 20.546875 C-5.01474322 22.66811412 -7.23677304 22.54737847 -11 22 C-13.75863633 19.77529329 -13.97008487 18.1761669 -14.5625 14.6875 C-13.71158056 9.10925034 -10.65600503 6.11981622 -6.3359375 2.671875 C-2.51628521 0 -2.51628521 0 0 0 Z " fill="#FAFAFA" transform="translate(135,53)"/>
<path d="M0 0 C1.4540625 0.0309375 1.4540625 0.0309375 2.9375 0.0625 C7.06326744 5.99329069 7.33178904 9.86672502 6.9375 17.0625 C1.6575 17.0625 -3.6225 17.0625 -9.0625 17.0625 C-8.14919244 0.16631005 -8.14919244 0.16631005 0 0 Z " fill="#F5F5F5" transform="translate(342.0625,32.9375)"/>
<path d="M0 0 C3.0625 2.0625 3.0625 2.0625 5 5 C5 8.56883409 4.68455497 10.88309452 2.8125 13.9375 C0.08912093 15.5339636 -1.90953021 15.38630872 -5 15 C-6.875 13.875 -6.875 13.875 -8 12 C-8.3125 8.9375 -8.3125 8.9375 -8 6 C-7.34 5.34 -6.68 4.68 -6 4 C-8.37233611 4.03780298 -8.37233611 4.03780298 -11 5 C-13.33414647 7.95849927 -13.33414647 7.95849927 -15 11 C-15.66 10.34 -16.32 9.68 -17 9 C-15.87895467 7.68412059 -14.75303035 6.37239647 -13.625 5.0625 C-12.99851562 4.33160156 -12.37203125 3.60070313 -11.7265625 2.84765625 C-8.43847406 -0.67104472 -4.58245824 -0.76082799 0 0 Z " fill="#353535" transform="translate(101,31)"/>
<path d="M0 0 C0.66 0 1.32 0 2 0 C2.33 1.98 2.66 3.96 3 6 C3.86625 5.195625 4.7325 4.39125 5.625 3.5625 C8.62876093 1.03075864 11.03203262 0.28342624 15 0 C14.01 0.66 13.02 1.32 12 2 C12.66 2.66 13.32 3.32 14 4 C12.3603125 4.4021875 12.3603125 4.4021875 10.6875 4.8125 C7.21307994 5.93138104 6.30547678 6.46397554 4 9 C3.01 9 2.02 9 1 9 C0.67 6.03 0.34 3.06 0 0 Z " fill="#575757" transform="translate(279,31)"/>
<path d="M0 0 C0.99 0.33 1.98 0.66 3 1 C3 1.66 3 2.32 3 3 C1.9275 3.391875 0.855 3.78375 -0.25 4.1875 C-3.89140865 5.72383468 -5.76947479 7.69882269 -8 11 C-8 7.45459812 -7.40614728 6.93992636 -5.125 4.375 C-4.59132813 3.76398437 -4.05765625 3.15296875 -3.5078125 2.5234375 C-2 1 -2 1 0 0 Z " fill="#474747" transform="translate(93,31)"/>
</svg>
